<svg width="40" height="40" viewBox="0 0 40 40" fill="none" xmlns="http://www.w3.org/2000/svg">
<rect width="40" height="40" rx="20" fill="#DFDE02"/>
<path d="M20 24C21.0609 24 22.0783 23.5786 22.8284 22.8284C23.5786 22.0783 24 21.0609 24 20C24 18.9391 23.5786 17.9217 22.8284 17.1716C22.0783 16.4214 21.0609 16 20 16C18.9391 16 17.9217 16.4214 17.1716 17.1716C16.4214 17.9217 16 18.9391 16 20C16 21.0609 16.4214 22.0783 17.1716 22.8284C17.9217 23.5786 18.9391 24 20 24V24Z" stroke="black" stroke-width="1.5" stroke-linecap="round" stroke-linejoin="round"/>
<path d="M11 24V16C11 14.6739 11.5268 13.4021 12.4645 12.4645C13.4021 11.5268 14.6739 11 16 11H24C25.3261 11 26.5979 11.5268 27.5355 12.4645C28.4732 13.4021 29 14.6739 29 16V24C29 25.3261 28.4732 26.5979 27.5355 27.5355C26.5979 28.4732 25.3261 29 24 29H16C14.6739 29 13.4021 28.4732 12.4645 27.5355C11.5268 26.5979 11 25.3261 11 24Z" stroke="black" stroke-width="1.5"/>
<path d="M25.5 14.51L25.51 14.499" stroke="black" stroke-width="1.5" stroke-linecap="round" stroke-linejoin="round"/>
</svg>
