<svg width="40" height="40" viewBox="0 0 40 40" fill="none" xmlns="http://www.w3.org/2000/svg">
<rect width="40" height="40" rx="20" fill="#DFDE02"/>
<path d="M22 20L18.5 22V18L22 20Z" stroke="black" stroke-width="1.5" stroke-linecap="round" stroke-linejoin="round"/>
<path d="M10 20.7069V19.2919C10 16.3969 10 14.9489 10.905 14.0179C11.811 13.0859 13.237 13.0459 16.088 12.9649C17.438 12.9269 18.818 12.8999 20 12.8999C21.181 12.8999 22.561 12.9269 23.912 12.9649C26.763 13.0459 28.189 13.0859 29.094 14.0179C30 14.9489 30 16.3979 30 19.2919V20.7069C30 23.6029 30 25.0499 29.095 25.9819C28.189 26.9129 26.764 26.9539 23.912 27.0339C22.562 27.0729 21.182 27.0999 20 27.0999C18.6958 27.096 17.3916 27.074 16.088 27.0339C13.237 26.9539 11.811 26.9139 10.905 25.9819C10 25.0499 10 23.6019 10 20.7079V20.7069Z" stroke="black" stroke-width="1.5"/>
</svg>
