<svg width="79" height="80" viewBox="0 0 79 80" fill="none" xmlns="http://www.w3.org/2000/svg">
<g filter="url(#filter0_b_12_23)">
<rect x="0.260742" width="78.2617" height="80" rx="39.1308" fill="white" fill-opacity="0.07"/>
<rect x="2.26074" y="2" width="74.2617" height="76" rx="37.1308" stroke="white" stroke-opacity="0.06" stroke-width="4"/>
</g>
<path d="M51.8939 52.2963H26.1953V26.5976C26.1953 26.4391 26.1323 26.2871 26.0202 26.175C25.9082 26.063 25.7561 26 25.5976 26C25.4391 26 25.2871 26.063 25.175 26.175C25.063 26.2871 25 26.4391 25 26.5976V52.8939C25 53.0524 25.063 53.2045 25.175 53.3165C25.2871 53.4286 25.4391 53.4916 25.5976 53.4916H51.8939C52.0524 53.4916 52.2045 53.4286 52.3165 53.3165C52.4286 53.2045 52.4916 53.0524 52.4916 52.8939C52.4916 52.7354 52.4286 52.5834 52.3165 52.4713C52.2045 52.3593 52.0524 52.2963 51.8939 52.2963Z" fill="white"/>
<path d="M29.1836 42.7343C29.6591 42.7343 30.1151 42.5454 30.4514 42.2092C30.7876 41.8729 30.9765 41.4169 30.9765 40.9414C30.9767 40.6191 30.8888 40.303 30.7224 40.027C30.556 39.751 30.3173 39.5258 30.0322 39.3755L32.5543 34.3673H32.7694H32.9248L37.9092 45.352C37.6275 45.5006 37.3906 45.7216 37.2226 45.9922C37.0547 46.2627 36.9619 46.5731 36.9537 46.8915C36.9455 47.2099 37.0222 47.5246 37.176 47.8035C37.3298 48.0824 37.5551 48.3152 37.8287 48.4782C38.1023 48.6411 38.4144 48.7282 38.7328 48.7305C39.0513 48.7329 39.3646 48.6503 39.6406 48.4914C39.9166 48.3326 40.1453 48.103 40.3031 47.8264C40.461 47.5499 40.5423 47.2362 40.5388 46.9178C40.539 46.5956 40.4511 46.2794 40.2847 46.0034C40.1183 45.7275 39.8796 45.5022 39.5945 45.352L42.1166 40.3437H42.3317C42.8011 40.3438 43.2518 40.1599 43.587 39.8313C43.9222 39.5028 44.1153 39.0559 44.1247 38.5867L49.0851 36.9252C49.2222 37.2158 49.4349 37.4643 49.701 37.6445C49.967 37.8248 50.2766 37.9302 50.5974 37.9498C50.9181 37.9694 51.2382 37.9024 51.5242 37.7559C51.8102 37.6093 52.0516 37.3886 52.223 37.1168C52.3945 36.845 52.4898 36.5322 52.4989 36.2109C52.5079 35.8897 52.4305 35.5719 52.2747 35.2909C52.1189 35.0098 51.8904 34.7758 51.6132 34.6133C51.3359 34.4509 51.0201 34.3659 50.6987 34.3673C50.3025 34.3676 49.9176 34.4991 49.604 34.7413C49.2905 34.9835 49.066 35.3227 48.9656 35.706L43.7422 37.4511C43.5852 37.2738 43.3948 37.129 43.1819 37.0252C42.969 36.9214 42.7378 36.8606 42.5014 36.8462C42.265 36.8317 42.028 36.864 41.8041 36.9411C41.5801 37.0183 41.3736 37.1388 41.1962 37.2957C41.0188 37.4527 40.8741 37.6431 40.7703 37.856C40.6665 38.0689 40.6057 38.3001 40.5912 38.5365C40.5768 38.773 40.6091 39.0099 40.6862 39.2338C40.7634 39.4578 40.8839 39.6643 41.0408 39.8417L38.7698 44.3838L33.9886 33.9131C34.1709 33.7411 34.3158 33.5336 34.4145 33.3033C34.5132 33.073 34.5635 32.8249 34.5624 32.5744C34.5703 32.279 34.5052 31.9863 34.3727 31.7222C34.2402 31.4581 34.0445 31.2308 33.8031 31.0606C33.5616 30.8904 33.2817 30.7825 32.9885 30.7465C32.6952 30.7105 32.3976 30.7476 32.1221 30.8543C31.8466 30.9611 31.6018 31.1343 31.4094 31.3585C31.217 31.5828 31.083 31.8511 31.0193 32.1396C30.9556 32.4281 30.9642 32.7279 31.0443 33.0123C31.1245 33.2966 31.2736 33.5568 31.4785 33.7697L28.7891 39.1484C28.3136 39.2008 27.8784 39.4398 27.5791 39.813C27.2799 40.1863 27.1411 40.6631 27.1934 41.1386C27.2457 41.6141 27.4848 42.0494 27.858 42.3486C28.2313 42.6479 28.7081 42.7866 29.1836 42.7343ZM38.7459 47.5154C38.6277 47.5154 38.5121 47.4804 38.4138 47.4147C38.3156 47.3491 38.239 47.2557 38.1937 47.1465C38.1485 47.0373 38.1367 46.9171 38.1597 46.8012C38.1828 46.6853 38.2397 46.5788 38.3233 46.4952C38.4069 46.4116 38.5134 46.3547 38.6293 46.3316C38.7452 46.3086 38.8654 46.3204 38.9746 46.3657C39.0838 46.4109 39.1771 46.4875 39.2428 46.5858C39.3085 46.6841 39.3435 46.7996 39.3435 46.9178C39.3435 47.0763 39.2806 47.2283 39.1685 47.3404C39.0564 47.4525 38.9044 47.5154 38.7459 47.5154ZM50.6987 35.5626C50.8169 35.5626 50.9325 35.5976 51.0308 35.6633C51.1291 35.729 51.2057 35.8223 51.2509 35.9315C51.2961 36.0407 51.308 36.1609 51.2849 36.2768C51.2618 36.3928 51.2049 36.4992 51.1213 36.5828C51.0378 36.6664 50.9313 36.7233 50.8153 36.7464C50.6994 36.7694 50.5792 36.7576 50.47 36.7124C50.3608 36.6671 50.2675 36.5905 50.2018 36.4923C50.1362 36.394 50.1011 36.2784 50.1011 36.1602C50.1011 36.0017 50.1641 35.8497 50.2761 35.7376C50.3882 35.6256 50.5402 35.5626 50.6987 35.5626ZM42.3317 37.9532C42.4499 37.9532 42.5655 37.9882 42.6638 38.0539C42.7621 38.1195 42.8387 38.2129 42.8839 38.3221C42.9291 38.4313 42.941 38.5515 42.9179 38.6674C42.8948 38.7833 42.8379 38.8898 42.7543 38.9734C42.6708 39.057 42.5643 39.1139 42.4483 39.137C42.3324 39.16 42.2122 39.1482 42.103 39.103C41.9938 39.0577 41.9005 38.9811 41.8348 38.8828C41.7691 38.7846 41.7341 38.669 41.7341 38.5508C41.7341 38.3923 41.7971 38.2403 41.9091 38.1282C42.0212 38.0161 42.1732 37.9532 42.3317 37.9532ZM32.7694 31.9767C32.8877 31.9767 33.0032 32.0118 33.1015 32.0774C33.1998 32.1431 33.2764 32.2365 33.3216 32.3457C33.3668 32.4549 33.3787 32.575 33.3556 32.691C33.3325 32.8069 33.2756 32.9134 33.192 32.997C33.1085 33.0805 33.002 33.1375 32.886 33.1605C32.7701 33.1836 32.6499 33.1718 32.5407 33.1265C32.4315 33.0813 32.3382 33.0047 32.2725 32.9064C32.2069 32.8081 32.1718 32.6926 32.1718 32.5744C32.1718 32.4159 32.2348 32.2639 32.3469 32.1518C32.4589 32.0397 32.6109 31.9767 32.7694 31.9767ZM29.1836 40.3437C29.3018 40.3437 29.4173 40.3788 29.5156 40.4445C29.6139 40.5101 29.6905 40.6035 29.7357 40.7127C29.781 40.8219 29.7928 40.942 29.7697 41.058C29.7467 41.1739 29.6898 41.2804 29.6062 41.364C29.5226 41.4476 29.4161 41.5045 29.3002 41.5275C29.1843 41.5506 29.0641 41.5388 28.9549 41.4935C28.8457 41.4483 28.7523 41.3717 28.6867 41.2734C28.621 41.1751 28.5859 41.0596 28.5859 40.9414C28.5859 40.7829 28.6489 40.6309 28.761 40.5188C28.8731 40.4067 29.0251 40.3437 29.1836 40.3437Z" fill="white"/>
<defs>
<filter id="filter0_b_12_23" x="-49.7393" y="-50" width="178.262" height="180" filterUnits="userSpaceOnUse" color-interpolation-filters="sRGB">
<feFlood flood-opacity="0" result="BackgroundImageFix"/>
<feGaussianBlur in="BackgroundImageFix" stdDeviation="25"/>
<feComposite in2="SourceAlpha" operator="in" result="effect1_backgroundBlur_12_23"/>
<feBlend mode="normal" in="SourceGraphic" in2="effect1_backgroundBlur_12_23" result="shape"/>
</filter>
</defs>
</svg>
