<svg width="19" height="17" viewBox="0 0 19 17" fill="none" xmlns="http://www.w3.org/2000/svg">
<path d="M10 0.375C14.957 0.375 19 3.67969 19 7.6875C19 11.7305 14.957 15 10 15C8.62891 15 7.36328 14.7539 6.20312 14.332C5.35938 15.0352 3.60156 16.125 1.28125 16.125C1.14062 16.125 1.07031 16.0898 1 15.9844C0.964844 15.8789 1 15.7383 1.07031 15.668C1.07031 15.6328 2.54688 14.0859 3.00391 12.293C1.73828 11.0273 1 9.44531 1 7.6875C1 3.67969 5.00781 0.375 10 0.375ZM5.5 8.8125C6.09766 8.8125 6.625 8.32031 6.625 7.6875C6.625 7.08984 6.09766 6.5625 5.5 6.5625C4.86719 6.5625 4.375 7.08984 4.375 7.6875C4.375 8.32031 4.86719 8.8125 5.5 8.8125ZM10 8.8125C10.5977 8.8125 11.125 8.32031 11.125 7.6875C11.125 7.08984 10.5977 6.5625 10 6.5625C9.36719 6.5625 8.875 7.08984 8.875 7.6875C8.875 8.32031 9.36719 8.8125 10 8.8125ZM14.5 8.8125C15.0977 8.8125 15.625 8.32031 15.625 7.6875C15.625 7.08984 15.0977 6.5625 14.5 6.5625C13.8672 6.5625 13.375 7.08984 13.375 7.6875C13.375 8.32031 13.8672 8.8125 14.5 8.8125Z" fill="#293546"/>
</svg>
