<svg width="34" height="35" viewBox="0 0 34 35" fill="none" xmlns="http://www.w3.org/2000/svg">
<g clip-path="url(#clip0_1_72)">
<path d="M17.1924 0.876465C13.891 0.876465 10.6637 1.85546 7.91861 3.68964C5.17356 5.52383 3.03405 8.13082 1.77064 11.181C0.507233 14.2311 0.176667 17.5874 0.820747 20.8254C1.46483 24.0634 3.05462 27.0377 5.3891 29.3722C7.72357 31.7066 10.6979 33.2964 13.9359 33.9405C17.1739 34.5846 20.5302 34.254 23.5803 32.9906C26.6305 31.7272 29.2374 29.5877 31.0716 26.8427C32.9058 24.0976 33.8848 20.8703 33.8848 17.5689C33.8848 13.1418 32.1262 8.89599 28.9957 5.76556C25.8653 2.63512 21.6195 0.876465 17.1924 0.876465V0.876465ZM26.6793 13.5418L16.2048 25.4212C16.0357 25.6117 15.8308 25.7669 15.6016 25.8779C15.3724 25.9889 15.1236 26.0535 14.8694 26.0681H14.7442C14.2697 26.071 13.8112 25.8975 13.4575 25.5812L7.85162 20.6083C7.46609 20.2661 7.23229 19.7848 7.20163 19.2702C7.17098 18.7557 7.34599 18.25 7.68817 17.8645C8.03035 17.4789 8.51166 17.2451 9.02623 17.2145C9.54079 17.1838 10.0465 17.3588 10.432 17.701L14.6051 21.3803L23.7929 10.9475C24.1341 10.5611 24.6149 10.326 25.1295 10.2941C25.644 10.2621 26.1502 10.4359 26.5367 10.7771C26.9231 11.1184 27.1582 11.5992 27.1901 12.1138C27.2221 12.6283 27.0483 13.1345 26.7071 13.521L26.6793 13.5418Z" fill="#FEFF05"/>
</g>
<defs>
<clipPath id="clip0_1_72">
<rect width="33.3848" height="33.3848" fill="white" transform="translate(0.5 0.876465)"/>
</clipPath>
</defs>
</svg>
