<svg width="79" height="80" viewBox="0 0 79 80" fill="none" xmlns="http://www.w3.org/2000/svg">
<g filter="url(#filter0_b_12_22)">
<rect x="0.260742" width="78.2617" height="80" rx="39.1308" fill="white" fill-opacity="0.07"/>
<rect x="2.26074" y="2" width="74.2617" height="76" rx="37.1308" stroke="white" stroke-opacity="0.06" stroke-width="4"/>
</g>
<path d="M51.8939 27.0008H36.3552C36.1967 27.0008 36.0447 27.0638 35.9326 27.1758C35.8205 27.2879 35.7576 27.4399 35.7576 27.5984V47.9183C35.7576 48.0768 35.8205 48.2288 35.9326 48.3409C36.0447 48.453 36.1967 48.5159 36.3552 48.5159H37.3354C37.5461 48.9996 37.6087 49.5348 37.5151 50.054C37.4214 50.5732 37.1759 51.0529 36.8094 51.4324C36.536 51.6831 36.2122 51.8724 35.8597 51.9878C35.5073 52.1033 35.1342 52.1421 34.7655 52.1018C34.2453 52.0568 33.7541 51.8427 33.367 51.4922C33.0091 51.0637 32.7928 50.5347 32.7479 49.9782C32.7029 49.4217 32.8315 48.8649 33.116 48.3845C33.1896 48.33 33.2502 48.26 33.2936 48.1794C33.337 48.0989 33.3621 48.0097 33.367 47.9183V43.7348C33.3671 43.6002 33.3208 43.4696 33.2359 43.3651C33.151 43.2606 33.0327 43.1885 32.9008 43.1611L31.335 42.7427C30.0082 42.4319 29.7811 41.5474 29.7811 39.5991V36.0133C29.7811 34.1247 30.0202 33.1565 31.4067 32.8577L32.9008 32.535C33.0433 32.5061 33.1699 32.4252 33.2561 32.3081C33.3422 32.191 33.3818 32.0461 33.367 31.9015V27.5984C33.367 27.4399 33.304 27.2879 33.192 27.1758C33.0799 27.0638 32.9279 27.0008 32.7694 27.0008H29.6497C28.4447 26.9783 27.2797 27.4331 26.4087 28.266C25.5377 29.099 25.0313 30.2425 25 31.4473V44.0695C25.0313 45.2742 25.5377 46.4178 26.4087 47.2507C27.2797 48.0836 28.4447 48.5384 29.6497 48.5159H31.7892C31.5461 49.1632 31.4889 49.8655 31.624 50.5436C31.7592 51.2216 32.0814 51.8483 32.5542 52.3528C33.1325 52.876 33.8595 53.2061 34.634 53.2971H35.0285C35.9889 53.2907 36.913 52.9288 37.6222 52.2811C38.112 51.8017 38.4611 51.1974 38.6318 50.5336C38.8025 49.8699 38.7882 49.1721 38.5904 48.5159H51.8939C52.0524 48.5159 52.2045 48.453 52.3165 48.3409C52.4286 48.2288 52.4916 48.0768 52.4916 47.9183V27.5984C52.4916 27.4399 52.4286 27.2879 52.3165 27.1758C52.2045 27.0638 52.0524 27.0008 51.8939 27.0008ZM26.1953 44.0695V31.4473C26.2234 30.5584 26.6028 29.7171 27.2504 29.1076C27.898 28.4981 28.7608 28.1703 29.6497 28.1961H32.1717V31.4234L31.1438 31.6505C28.5859 32.2003 28.5859 34.567 28.5859 35.9654V39.5513C28.5859 41.0335 28.5859 43.2806 31.0721 43.8543L32.1717 44.1173V47.3207H29.6497C28.7608 47.3464 27.898 47.0186 27.2504 46.4092C26.6028 45.7997 26.2234 44.9583 26.1953 44.0695ZM51.2963 47.3207H36.9529V28.1961H51.2963V47.3207Z" fill="white"/>
<path d="M39.9404 35.3678H48.3074C48.4659 35.3678 48.6179 35.3048 48.73 35.1928C48.8421 35.0807 48.9051 34.9287 48.9051 34.7702V31.1843C48.9051 31.0258 48.8421 30.8738 48.73 30.7617C48.6179 30.6496 48.4659 30.5867 48.3074 30.5867H39.9404C39.7819 30.5867 39.6299 30.6496 39.5178 30.7617C39.4057 30.8738 39.3428 31.0258 39.3428 31.1843V34.7702C39.3428 34.9287 39.4057 35.0807 39.5178 35.1928C39.6299 35.3048 39.7819 35.3678 39.9404 35.3678ZM40.5381 31.782H47.7098V34.1725H40.5381V31.782Z" fill="white"/>
<path d="M39.9404 37.7585H41.1357C41.2942 37.7585 41.4462 37.6956 41.5583 37.5835C41.6704 37.4714 41.7333 37.3194 41.7333 37.1609C41.7333 37.0024 41.6704 36.8504 41.5583 36.7383C41.4462 36.6262 41.2942 36.5632 41.1357 36.5632H39.9404C39.7819 36.5632 39.6299 36.6262 39.5178 36.7383C39.4057 36.8504 39.3428 37.0024 39.3428 37.1609C39.3428 37.3194 39.4057 37.4714 39.5178 37.5835C39.6299 37.6956 39.7819 37.7585 39.9404 37.7585Z" fill="white"/>
<path d="M44.7226 36.5632H43.5273C43.3688 36.5632 43.2168 36.6262 43.1047 36.7383C42.9927 36.8504 42.9297 37.0024 42.9297 37.1609C42.9297 37.3194 42.9927 37.4714 43.1047 37.5835C43.2168 37.6956 43.3688 37.7585 43.5273 37.7585H44.7226C44.8811 37.7585 45.0331 37.6956 45.1452 37.5835C45.2573 37.4714 45.3203 37.3194 45.3203 37.1609C45.3203 37.0024 45.2573 36.8504 45.1452 36.7383C45.0331 36.6262 44.8811 36.5632 44.7226 36.5632Z" fill="white"/>
<path d="M48.3086 36.5632H47.1133C46.9548 36.5632 46.8027 36.6262 46.6907 36.7383C46.5786 36.8504 46.5156 37.0024 46.5156 37.1609C46.5156 37.3194 46.5786 37.4714 46.6907 37.5835C46.8027 37.6956 46.9548 37.7585 47.1133 37.7585H48.3086C48.4671 37.7585 48.6191 37.6956 48.7312 37.5835C48.8432 37.4714 48.9062 37.3194 48.9062 37.1609C48.9062 37.0024 48.8432 36.8504 48.7312 36.7383C48.6191 36.6262 48.4671 36.5632 48.3086 36.5632Z" fill="white"/>
<path d="M39.9404 41.3445H41.1357C41.2942 41.3445 41.4462 41.2815 41.5583 41.1694C41.6704 41.0573 41.7333 40.9053 41.7333 40.7468C41.7333 40.5883 41.6704 40.4363 41.5583 40.3242C41.4462 40.2121 41.2942 40.1492 41.1357 40.1492H39.9404C39.7819 40.1492 39.6299 40.2121 39.5178 40.3242C39.4057 40.4363 39.3428 40.5883 39.3428 40.7468C39.3428 40.9053 39.4057 41.0573 39.5178 41.1694C39.6299 41.2815 39.7819 41.3445 39.9404 41.3445Z" fill="white"/>
<path d="M44.7226 40.1492H43.5273C43.3688 40.1492 43.2168 40.2121 43.1047 40.3242C42.9927 40.4363 42.9297 40.5883 42.9297 40.7468C42.9297 40.9053 42.9927 41.0573 43.1047 41.1694C43.2168 41.2815 43.3688 41.3445 43.5273 41.3445H44.7226C44.8811 41.3445 45.0331 41.2815 45.1452 41.1694C45.2573 41.0573 45.3203 40.9053 45.3203 40.7468C45.3203 40.5883 45.2573 40.4363 45.1452 40.3242C45.0331 40.2121 44.8811 40.1492 44.7226 40.1492Z" fill="white"/>
<path d="M48.3086 40.1492H47.1133C46.9548 40.1492 46.8027 40.2121 46.6907 40.3242C46.5786 40.4363 46.5156 40.5883 46.5156 40.7468C46.5156 40.9053 46.5786 41.0573 46.6907 41.1694C46.8027 41.2815 46.9548 41.3445 47.1133 41.3445H48.3086C48.4671 41.3445 48.6191 41.2815 48.7312 41.1694C48.8432 41.0573 48.9062 40.9053 48.9062 40.7468C48.9062 40.5883 48.8432 40.4363 48.7312 40.3242C48.6191 40.2121 48.4671 40.1492 48.3086 40.1492Z" fill="white"/>
<path d="M39.9404 44.9304H41.1357C41.2942 44.9304 41.4462 44.8674 41.5583 44.7553C41.6704 44.6433 41.7333 44.4913 41.7333 44.3328C41.7333 44.1742 41.6704 44.0222 41.5583 43.9102C41.4462 43.7981 41.2942 43.7351 41.1357 43.7351H39.9404C39.7819 43.7351 39.6299 43.7981 39.5178 43.9102C39.4057 44.0222 39.3428 44.1742 39.3428 44.3328C39.3428 44.4913 39.4057 44.6433 39.5178 44.7553C39.6299 44.8674 39.7819 44.9304 39.9404 44.9304Z" fill="white"/>
<path d="M44.7226 43.7351H43.5273C43.3688 43.7351 43.2168 43.7981 43.1047 43.9102C42.9927 44.0222 42.9297 44.1742 42.9297 44.3328C42.9297 44.4913 42.9927 44.6433 43.1047 44.7553C43.2168 44.8674 43.3688 44.9304 43.5273 44.9304H44.7226C44.8811 44.9304 45.0331 44.8674 45.1452 44.7553C45.2573 44.6433 45.3203 44.4913 45.3203 44.3328C45.3203 44.1742 45.2573 44.0222 45.1452 43.9102C45.0331 43.7981 44.8811 43.7351 44.7226 43.7351Z" fill="white"/>
<path d="M48.3086 43.7351H47.1133C46.9548 43.7351 46.8027 43.7981 46.6907 43.9102C46.5786 44.0222 46.5156 44.1742 46.5156 44.3328C46.5156 44.4913 46.5786 44.6433 46.6907 44.7553C46.8027 44.8674 46.9548 44.9304 47.1133 44.9304H48.3086C48.4671 44.9304 48.6191 44.8674 48.7312 44.7553C48.8432 44.6433 48.9062 44.4913 48.9062 44.3328C48.9062 44.1742 48.8432 44.0222 48.7312 43.9102C48.6191 43.7981 48.4671 43.7351 48.3086 43.7351Z" fill="white"/>
<defs>
<filter id="filter0_b_12_22" x="-49.7393" y="-50" width="178.262" height="180" filterUnits="userSpaceOnUse" color-interpolation-filters="sRGB">
<feFlood flood-opacity="0" result="BackgroundImageFix"/>
<feGaussianBlur in="BackgroundImageFix" stdDeviation="25"/>
<feComposite in2="SourceAlpha" operator="in" result="effect1_backgroundBlur_12_22"/>
<feBlend mode="normal" in="SourceGraphic" in2="effect1_backgroundBlur_12_22" result="shape"/>
</filter>
</defs>
</svg>
