<svg width="70" height="70" viewBox="0 0 70 70" fill="none" xmlns="http://www.w3.org/2000/svg">
<circle cx="35" cy="35" r="35" fill="#1E1E1E"/>
<path d="M30.3499 25.777C30.828 25.777 31.1467 25.9364 31.4655 26.2551C32.103 26.8926 32.103 27.8489 31.4655 28.4864L23.4968 36.455C22.8593 37.0925 21.9031 37.0925 21.2656 36.455C20.6281 35.8176 20.6281 34.8613 21.2656 34.2238L29.2343 26.2551C29.553 25.9364 29.8717 25.777 30.3499 25.777Z" fill="#666666"/>
<path d="M22.3812 33.7457C22.8593 33.7457 23.1781 33.9051 23.4968 34.2238L31.4655 42.1925C32.103 42.83 32.103 43.7862 31.4655 44.4237C30.828 45.0612 29.8717 45.0612 29.2343 44.4237L21.2656 36.4551C20.6281 35.8176 20.6281 34.8613 21.2656 34.2238C21.5843 33.9051 21.9031 33.7457 22.3812 33.7457Z" fill="#666666"/>
<path d="M22.3818 33.7457L47.8816 33.7457C48.8378 33.7457 49.4753 34.3832 49.4753 35.3394C49.4753 36.2957 48.8378 36.9332 47.8816 36.9332L22.3818 36.9332C21.4256 36.9332 20.7881 36.2957 20.7881 35.3394C20.7881 34.3832 21.4256 33.7457 22.3818 33.7457Z" fill="#666666"/>
</svg>
