<svg width="28" height="28" viewBox="0 0 28 28" fill="none" xmlns="http://www.w3.org/2000/svg">
<path d="M4.59375 20.5625C4.29236 20.5625 4.03472 20.4556 3.82083 20.2417C3.60694 20.0278 3.5 19.7701 3.5 19.4688C3.5 19.1674 3.60694 18.9097 3.82083 18.6958C4.03472 18.4819 4.29236 18.375 4.59375 18.375H22.8229C23.1243 18.375 23.3819 18.4819 23.5958 18.6958C23.8097 18.9097 23.9167 19.1674 23.9167 19.4688C23.9167 19.7701 23.8097 20.0278 23.5958 20.2417C23.3819 20.4556 23.1243 20.5625 22.8229 20.5625H4.59375ZM4.59375 14.875C4.29236 14.875 4.03472 14.7681 3.82083 14.5542C3.60694 14.3403 3.5 14.0826 3.5 13.7812C3.5 13.4799 3.60694 13.2222 3.82083 13.0083C4.03472 12.7944 4.29236 12.6875 4.59375 12.6875H22.8229C23.1243 12.6875 23.3819 12.7944 23.5958 13.0083C23.8097 13.2222 23.9167 13.4799 23.9167 13.7812C23.9167 14.0826 23.8097 14.3403 23.5958 14.5542C23.3819 14.7681 23.1243 14.875 22.8229 14.875H4.59375ZM4.59375 9.1875C4.29236 9.1875 4.03472 9.08056 3.82083 8.86667C3.60694 8.65278 3.5 8.39514 3.5 8.09375C3.5 7.79236 3.60694 7.53472 3.82083 7.32083C4.03472 7.10694 4.29236 7 4.59375 7H22.8229C23.1243 7 23.3819 7.10694 23.5958 7.32083C23.8097 7.53472 23.9167 7.79236 23.9167 8.09375C23.9167 8.39514 23.8097 8.65278 23.5958 8.86667C23.3819 9.08056 23.1243 9.1875 22.8229 9.1875H4.59375Z" fill="white"/>
</svg>
