<svg width="21" height="19" viewBox="0 0 21 19" fill="none" xmlns="http://www.w3.org/2000/svg">
<path d="M20.25 8.6875C20.25 9.53125 19.793 10.2695 19.0898 10.6562V16C19.0898 16.3516 18.8438 17.125 17.9648 17.125C17.7188 17.125 17.4727 17.0547 17.2969 16.8789L14.2734 14.4883C12.7969 13.293 10.8984 12.625 9 12.625H7.98047C7.91016 13.0117 7.83984 13.3633 7.83984 13.75C7.83984 14.8047 8.19141 15.7188 8.75391 16.4922C9.31641 17.2305 8.75391 18.25 7.83984 18.25H5.23828C4.81641 18.25 4.42969 18.0391 4.25391 17.6523C3.65625 16.4922 3.33984 15.1562 3.33984 13.75C3.33984 13.3984 3.375 13.0117 3.41016 12.625H2.25C0.984375 12.625 0 11.6406 0 10.375V7C0 5.76953 0.984375 4.75 2.25 4.75H9C10.8984 4.75 12.7969 4.11719 14.2734 2.92188L17.2969 0.53125C17.4727 0.355469 17.7188 0.25 18 0.25C18.8789 0.25 19.125 1.09375 19.125 1.41016V6.75391C19.793 7.14062 20.25 7.87891 20.25 8.6875ZM16.875 13.6797V3.73047L15.6797 4.67969C13.7812 6.19141 11.4258 7 9 7V10.375C11.4258 10.375 13.7812 11.2188 15.6797 12.7305L16.875 13.6797Z" fill="#FEFF05"/>
</svg>
