<svg width="79" height="80" viewBox="0 0 79 80" fill="none" xmlns="http://www.w3.org/2000/svg">
<path d="M51.8963 40.7939C51.7457 40.7935 51.6005 40.8498 51.4897 40.9518C51.3789 41.0537 51.3107 41.1937 51.2986 41.3438V50.0216C51.3019 50.1369 51.2813 50.2516 51.2381 50.3586C51.1949 50.4655 51.13 50.5624 51.0476 50.6431C50.9795 50.7181 50.8965 50.7782 50.8039 50.8193C50.7113 50.8605 50.6111 50.8819 50.5097 50.8822H48.9081V43.1367C48.9081 42.9782 48.8451 42.8262 48.733 42.7141C48.6209 42.602 48.4689 42.5391 48.3104 42.5391C48.1519 42.5391 47.9999 42.602 47.8878 42.7141C47.7757 42.8262 47.7128 42.9782 47.7128 43.1367V50.9061H29.7835V43.1367C29.7835 42.9782 29.7205 42.8262 29.6084 42.7141C29.4963 42.602 29.3443 42.5391 29.1858 42.5391C29.0273 42.5391 28.8753 42.602 28.7632 42.7141C28.6512 42.8262 28.5882 42.9782 28.5882 43.1367V50.9061H26.9626C26.8515 50.8971 26.7432 50.866 26.6443 50.8147C26.5453 50.7633 26.4577 50.6926 26.3864 50.6069C26.3151 50.5212 26.2617 50.422 26.2293 50.3154C26.1969 50.2087 26.1861 50.0966 26.1976 49.9857V41.4992C26.1976 41.3407 26.1346 41.1886 26.0226 41.0766C25.9105 40.9645 25.7585 40.9015 25.6 40.9015C25.4424 40.9046 25.2922 40.9685 25.1808 41.08C25.0693 41.1914 25.0054 41.3416 25.0023 41.4992V49.9737C24.9895 50.2416 25.0298 50.5094 25.121 50.7616C25.2121 51.0138 25.3523 51.2455 25.5334 51.4433C25.7145 51.6411 25.933 51.8011 26.1762 51.914C26.4195 52.0269 26.6827 52.0906 26.9506 52.1014H28.9468C29.0255 52.1193 29.1072 52.1193 29.1858 52.1014C29.2605 52.1191 29.3383 52.1191 29.4129 52.1014H50.4739C50.7381 52.1014 50.9996 52.0473 51.2421 51.9424C51.4847 51.8376 51.7033 51.6842 51.8843 51.4918C52.2668 51.1114 52.4856 50.5967 52.4939 50.0574V41.3438C52.4819 41.1937 52.4136 41.0537 52.3028 40.9518C52.192 40.8498 52.0468 40.7935 51.8963 40.7939Z" fill="white"/>
<path d="M50.5333 31.7811H27.022C26.4998 31.7714 25.9948 31.9681 25.6167 32.3283C25.2385 32.6886 25.0176 33.1834 25.002 33.7055V38.5942C25 38.9847 25.1282 39.3648 25.3663 39.6743C25.6044 39.9838 25.9389 40.2052 26.3168 40.3035L35.7596 42.9092C35.7418 42.9798 35.7418 43.0537 35.7596 43.1244V46.7102C35.7596 46.8687 35.8225 47.0207 35.9346 47.1328C36.0467 47.2449 36.1987 47.3079 36.3572 47.3079H41.1383C41.2968 47.3079 41.4489 47.2449 41.5609 47.1328C41.673 47.0207 41.736 46.8687 41.736 46.7102V43.1244C41.7483 43.0693 41.7483 43.0121 41.736 42.957L51.2983 40.3872C51.6519 40.2641 51.9577 40.0327 52.1723 39.7258C52.3869 39.419 52.4993 39.0523 52.4936 38.6779V33.7892C52.4968 33.2639 52.2928 32.7585 51.9258 32.3825C51.5589 32.0066 51.0585 31.7905 50.5333 31.7811ZM40.5407 46.1245H36.9548V43.2319L38.6641 43.6981H38.8195H38.9749L40.5407 43.2678V46.1245ZM51.2983 38.6779C51.297 38.8041 51.2542 38.9264 51.1764 39.0258C51.0986 39.1252 50.9902 39.1962 50.868 39.2277L38.8195 42.5387L26.6276 39.1919C26.4992 39.1589 26.3863 39.0826 26.3079 38.9759C26.2294 38.8691 26.1903 38.7385 26.1973 38.6062V33.7055C26.2126 33.5026 26.3057 33.3135 26.4571 33.1776C26.6086 33.0417 26.8067 32.9696 27.0101 32.9764H50.5333C50.7436 32.9795 50.9442 33.0653 51.0919 33.2151C51.2395 33.365 51.3222 33.5669 51.3222 33.7772L51.2983 38.6779Z" fill="white"/>
<path d="M33.9668 30.8608C34.1253 30.8608 34.2773 30.7978 34.3894 30.6857C34.5015 30.5736 34.5644 30.4216 34.5644 30.2631C34.5676 29.7136 34.7881 29.1877 35.1778 28.8002C35.5675 28.4128 36.0947 28.1953 36.6442 28.1953H40.8516C41.4012 28.1953 41.9284 28.4128 42.3181 28.8002C42.7078 29.1877 42.9283 29.7136 42.9314 30.2631C42.9314 30.4216 42.9944 30.5736 43.1065 30.6857C43.2186 30.7978 43.3706 30.8608 43.5291 30.8608C43.6876 30.8608 43.8396 30.7978 43.9517 30.6857C44.0638 30.5736 44.1267 30.4216 44.1267 30.2631C44.1236 29.3966 43.7771 28.5666 43.1633 27.955C42.5494 27.3434 41.7182 27 40.8516 27H36.6442C35.7777 27 34.9465 27.3434 34.3326 27.955C33.7188 28.5666 33.3723 29.3966 33.3691 30.2631C33.3691 30.4216 33.4321 30.5736 33.5442 30.6857C33.6563 30.7978 33.8083 30.8608 33.9668 30.8608Z" fill="white"/>
<rect x="0.260742" width="78.2617" height="80" rx="39.1308" fill="white" fill-opacity="0.07"/>
<rect x="2.26074" y="2" width="74.2617" height="76" rx="37.1308" stroke="white" stroke-opacity="0.06" stroke-width="4"/>
</svg>
