<svg width="56" height="56" viewBox="0 0 56 56" fill="none" xmlns="http://www.w3.org/2000/svg">
<path d="M49.056 46.256L46.4128 37.296C45.7098 34.9757 44.2729 32.9461 42.318 31.5122C40.363 30.0782 37.9955 29.3174 35.5712 29.344H34.5408C36.3845 28.0691 37.8862 26.3602 38.9136 24.3679C39.9409 22.3757 40.4624 20.1613 40.432 17.92C40.5655 14.4967 39.3368 11.16 37.015 8.64091C34.6932 6.12178 31.4676 4.62556 28.0448 4.47998C24.628 4.6371 21.4116 6.13757 19.0958 8.65474C16.78 11.1719 15.5523 14.502 15.68 17.92C15.654 20.163 16.1798 22.378 17.211 24.37C18.2422 26.3621 19.7472 28.0702 21.5936 29.344H20.5408C18.1165 29.3174 15.749 30.0782 13.794 31.5122C11.839 32.9461 10.4021 34.9757 9.69919 37.296L7.03359 46.256C6.87281 46.8161 6.91765 47.4152 7.16003 47.9452C7.4024 48.4751 7.82632 48.9009 8.35519 49.1456C14.5986 51.8014 21.2669 53.3187 28.0448 53.6256H28.1568C34.8962 53.3016 41.5248 51.7848 47.7344 49.1456C48.2664 48.9046 48.6932 48.4793 48.9361 47.9482C49.179 47.4171 49.2216 46.816 49.056 46.256ZM27.8208 33.0848L26.0064 31.5168H29.6352L27.8208 33.0848ZM33.04 31.5168H35.28L32.2336 37.3856L29.3888 34.7424L33.04 31.5168ZM28.0448 6.71998C30.1147 6.77284 32.1195 7.45491 33.7921 8.6754C35.4648 9.89589 36.7261 11.5969 37.408 13.552C36.3864 13.7427 35.3384 13.7427 34.3168 13.552C32.9009 13.2159 31.5917 12.5305 30.5088 11.5584C30.304 11.389 30.0465 11.2964 29.7808 11.2964C29.515 11.2964 29.2576 11.389 29.0528 11.5584C27.6198 12.725 25.9311 13.5361 24.1247 13.9254C22.3184 14.3147 20.4455 14.2712 18.6592 13.7984C19.3041 11.7955 20.5517 10.0406 22.2317 8.77367C23.9116 7.5067 25.9418 6.78946 28.0448 6.71998ZM17.92 17.92C17.9057 17.1701 17.9581 16.4205 18.0768 15.68C19.2768 15.9901 20.511 16.1482 21.7504 16.1504C23.1106 16.2014 24.4705 16.0428 25.7824 15.68C27.1905 15.2617 28.5217 14.6188 29.7248 13.776C30.928 14.7013 32.3197 15.3513 33.8016 15.68C35.2119 15.9807 36.6697 15.9807 38.08 15.68C38.1972 16.3682 38.2571 17.065 38.2592 17.7632C38.3933 20.5926 37.4007 23.3598 35.4989 25.459C33.597 27.5582 30.9409 28.8182 28.112 28.9632C25.3055 28.8237 22.6656 27.5888 20.7599 25.5238C18.8541 23.4589 17.8344 20.7287 17.92 17.92ZM22.6464 31.584L26.4096 34.8544L23.8112 37.4304L20.4736 31.5168H22.6016L22.6464 31.584ZM9.20639 46.9504L11.872 37.9904C12.321 36.5429 13.1298 35.2329 14.2228 34.183C15.3158 33.1331 16.6572 32.3776 18.1216 31.9872L22.6016 39.8944C22.6949 40.0387 22.8165 40.1627 22.9589 40.2589C23.1013 40.3551 23.2617 40.4216 23.4304 40.4544H23.5872C23.7341 40.4562 23.8797 40.4272 24.0147 40.3693C24.1498 40.3115 24.2712 40.226 24.3712 40.1184L26.88 37.408L26.992 51.296C20.9066 50.8602 14.935 49.4222 9.31839 47.04C9.31839 47.04 9.13919 47.04 9.18399 46.8832L9.20639 46.9504ZM46.7936 47.04C41.204 49.3466 35.2842 50.7528 29.2544 51.2064L29.12 37.632L31.696 40.0288C31.9075 40.2127 32.1773 40.3159 32.4576 40.32H32.6592C32.8272 40.2935 32.9863 40.2266 33.1228 40.1252C33.2593 40.0238 33.3693 39.8908 33.4432 39.7376L37.5872 31.7856C39.1481 32.1113 40.5939 32.8477 41.7752 33.9188C42.9565 34.9898 43.8306 36.3567 44.3072 37.8784L46.9504 46.8384C46.9515 46.8849 46.9366 46.9304 46.908 46.9672C46.8794 47.0039 46.839 47.0296 46.7936 47.04Z" fill="white"/>
</svg>
