<svg width="35" height="23" viewBox="0 0 35 23" fill="none" xmlns="http://www.w3.org/2000/svg">
<path d="M23.0003 22.9999C22.4253 22.9999 22.0419 22.8083 21.6586 22.4249C20.8919 21.6583 20.8919 20.5083 21.6586 19.7416L31.2419 10.1583C32.0086 9.39159 33.1586 9.39159 33.9253 10.1583C34.6919 10.9249 34.6919 12.0749 33.9253 12.8416L24.3419 22.4249C23.9586 22.8083 23.5753 22.9999 23.0003 22.9999Z" fill="black"/>
<path d="M32.5836 13.4167C32.0086 13.4167 31.6253 13.225 31.2419 12.8417L21.6586 3.25833C20.8919 2.49167 20.8919 1.34167 21.6586 0.575C22.4253 -0.191667 23.5753 -0.191667 24.3419 0.575L33.9253 10.1583C34.6919 10.925 34.6919 12.075 33.9253 12.8417C33.5419 13.225 33.1586 13.4167 32.5836 13.4167Z" fill="black"/>
<path d="M32.5833 13.4166H1.91667C0.766667 13.4166 0 12.6499 0 11.4999C0 10.3499 0.766667 9.58325 1.91667 9.58325H32.5833C33.7333 9.58325 34.5 10.3499 34.5 11.4999C34.5 12.6499 33.7333 13.4166 32.5833 13.4166Z" fill="black"/>
</svg>
