<svg width="71" height="70" viewBox="0 0 71 70" fill="none" xmlns="http://www.w3.org/2000/svg">
<circle cx="35.8037" cy="35" r="34.5" stroke="#FEFF05"/>
<path d="M40.7162 44.9017C40.2381 44.9017 39.9193 44.7423 39.6006 44.4236C38.9631 43.7861 38.9631 42.8298 39.6006 42.1923L47.5692 34.2237C48.2067 33.5862 49.163 33.5862 49.8005 34.2237C50.438 34.8612 50.438 35.8174 49.8005 36.4549L41.8318 44.4236C41.513 44.7423 41.1943 44.9017 40.7162 44.9017Z" fill="white"/>
<path d="M48.6848 36.933C48.2067 36.933 47.888 36.7736 47.5692 36.4549L39.6006 28.4862C38.9631 27.8487 38.9631 26.8925 39.6006 26.255C40.2381 25.6175 41.1943 25.6175 41.8318 26.255L49.8005 34.2237C50.438 34.8611 50.438 35.8174 49.8005 36.4549C49.4817 36.7736 49.163 36.933 48.6848 36.933Z" fill="white"/>
<path d="M48.6842 36.933H23.1844C22.2282 36.933 21.5907 36.2955 21.5907 35.3393C21.5907 34.383 22.2282 33.7455 23.1844 33.7455H48.6842C49.6404 33.7455 50.2779 34.383 50.2779 35.3393C50.2779 36.2955 49.6404 36.933 48.6842 36.933Z" fill="white"/>
</svg>
