<svg width="79" height="80" viewBox="0 0 79 80" fill="none" xmlns="http://www.w3.org/2000/svg">
<g filter="url(#filter0_b_12_24)">
<rect x="0.260742" width="78.2617" height="80" rx="39.1308" fill="white" fill-opacity="0.07"/>
<rect x="2.26074" y="2" width="74.2617" height="76" rx="37.1308" stroke="white" stroke-opacity="0.06" stroke-width="4"/>
</g>
<path d="M50.7581 49.5686L49.3238 44.6679C48.9444 43.4057 48.1639 42.3016 47.1005 41.523C46.0371 40.7443 44.7489 40.3335 43.431 40.3529H43.0605C43.98 39.6541 44.7228 38.7494 45.2293 37.7115C45.7358 36.6736 45.9919 35.5313 45.977 34.3765C45.977 34.1853 45.977 33.994 45.977 33.8028C46.019 33.6869 46.019 33.56 45.977 33.4442C45.9118 32.8253 45.7631 32.2182 45.5347 31.6393C46.0485 31.6243 46.5418 31.4346 46.9332 31.1014C47.4263 30.5509 47.6858 29.8302 47.6568 29.0917C47.6278 28.3533 47.3126 27.6551 46.7778 27.145C46.3363 26.5524 45.6814 26.1549 44.9519 26.0367C44.2223 25.9184 43.4754 26.0887 42.8693 26.5115C42.4835 26.8639 42.2374 27.3433 42.176 27.8622C41.312 27.4278 40.358 27.2026 39.391 27.2048C37.5741 27.2978 35.8669 28.1024 34.6388 29.4446C33.4107 30.7868 32.7605 32.5585 32.8289 34.3765C32.8107 35.5306 33.0641 36.6729 33.5686 37.711C34.0731 38.7492 34.8147 39.6541 35.7334 40.3529H35.3748C34.0676 40.3485 32.7939 40.766 31.743 41.5434C30.692 42.3208 29.9201 43.4166 29.5418 44.6679L28.0477 49.5686C27.9625 49.8732 27.9921 50.1985 28.1309 50.4828C28.2698 50.767 28.5081 50.9904 28.8007 51.1105C32.1584 52.5374 35.7459 53.3473 39.391 53.5011C43.0202 53.3439 46.5914 52.5341 49.9334 51.1105C50.2376 51.0015 50.4905 50.7834 50.6429 50.4985C50.7953 50.2135 50.8364 49.8821 50.7581 49.5686ZM43.5864 27.396C43.9574 27.1924 44.391 27.1347 44.8023 27.2342C45.2135 27.3337 45.5728 27.5833 45.8097 27.9339C46.479 28.6869 46.5986 29.7268 46.0726 30.193C45.9201 30.31 45.7415 30.3885 45.5522 30.4218C45.3628 30.4551 45.1682 30.4422 44.9849 30.3842H44.8534C44.4272 29.6985 43.8853 29.0918 43.2517 28.5913C43.2637 28.5321 43.2637 28.4712 43.2517 28.412C43.2248 28.2283 43.241 28.0409 43.2991 27.8645C43.3572 27.6881 43.4556 27.5277 43.5864 27.396ZM39.391 28.4001C40.6285 28.4537 41.8123 28.921 42.7528 29.7272C43.6934 30.5333 44.3362 31.6317 44.5785 32.8465C43.9174 32.6717 43.2794 32.4189 42.678 32.0935C41.5527 31.4972 40.6634 30.5363 40.156 29.3683C40.1029 29.2378 40.0054 29.1302 39.8807 29.0646C39.7561 28.999 39.6123 28.9796 39.4746 29.0097C39.3389 29.0425 39.2185 29.1209 39.1336 29.2319C39.0487 29.3429 39.0046 29.4796 39.0085 29.6193C39.0098 30.1208 38.8818 30.6141 38.6369 31.0517C38.3919 31.4893 38.0382 31.8564 37.61 32.1174C36.5768 32.7987 35.3693 33.1681 34.1317 33.1812C34.3119 31.8955 34.9366 30.7134 35.8972 29.8401C36.8579 28.9668 38.0939 28.4573 39.391 28.4001ZM34.0241 34.3765C35.5165 34.3935 36.9818 33.9784 38.2435 33.1812C38.9544 32.7163 39.5215 32.0622 39.881 31.2927C40.4814 32.0666 41.234 32.7093 42.0923 33.1812C42.9382 33.6249 43.8442 33.943 44.7817 34.1255C44.7817 34.2211 44.7817 34.3048 44.7817 34.4004C44.803 35.4559 44.5498 36.4987 44.0469 37.4269C43.544 38.3552 42.8088 39.1369 41.913 39.6955C41.7935 39.7703 41.6698 39.8382 41.5425 39.8987C41.4322 39.952 41.3409 40.0379 41.281 40.1448C41.2212 40.2517 41.1956 40.3745 41.2078 40.4964C41.2078 40.4964 41.2078 40.5561 41.2078 40.58V43.9388H37.61V40.5203C37.624 40.3981 37.5992 40.2747 37.5391 40.1674C37.4791 40.0602 37.3868 39.9745 37.2753 39.9226L36.9167 39.7194C36.0086 39.1605 35.2634 38.3726 34.7557 37.4349C34.2481 36.4972 33.9958 35.4425 34.0241 34.3765ZM29.243 49.9152L30.6654 45.0146C30.9708 44.0103 31.5913 43.1311 32.4351 42.5068C33.2789 41.8825 34.3013 41.5464 35.3509 41.5482H36.2832H36.4147V52.0667C33.9737 51.6894 31.5888 51.0109 29.3147 50.0467C29.2669 50.0148 29.243 49.971 29.243 49.9152ZM39.4388 52.3058C38.865 52.3058 38.2435 52.3058 37.6578 52.1982V45.1341H41.2437V52.1504C41.2425 52.1703 41.2425 52.1903 41.2437 52.2102C40.6444 52.277 40.0418 52.309 39.4388 52.3058ZM49.4792 50.0228C47.2046 50.9764 44.8255 51.6584 42.3911 52.0548V41.5482H42.5226H43.431C44.4792 41.5457 45.5004 41.88 46.344 42.502C47.1876 43.124 47.8091 44.0006 48.1166 45.0026L49.5629 49.9152C49.5669 49.9435 49.5608 49.9724 49.5454 49.9965C49.53 50.0206 49.5066 50.0384 49.4792 50.0467V50.0228Z" fill="white"/>
<defs>
<filter id="filter0_b_12_24" x="-49.7393" y="-50" width="178.262" height="180" filterUnits="userSpaceOnUse" color-interpolation-filters="sRGB">
<feFlood flood-opacity="0" result="BackgroundImageFix"/>
<feGaussianBlur in="BackgroundImageFix" stdDeviation="25"/>
<feComposite in2="SourceAlpha" operator="in" result="effect1_backgroundBlur_12_24"/>
<feBlend mode="normal" in="SourceGraphic" in2="effect1_backgroundBlur_12_24" result="shape"/>
</filter>
</defs>
</svg>
