<svg width="18" height="14" viewBox="0 0 18 14" fill="none" xmlns="http://www.w3.org/2000/svg">
<path d="M11.6719 9.5C11.4609 9.5 11.25 9.28906 11.25 9.07812V4.33203C11.25 4.12109 11.4609 3.875 11.6719 3.875H13.043C13.2539 3.875 13.5 4.12109 13.5 4.33203V9.07812C13.5 9.28906 13.2539 9.5 13.043 9.5H11.6719ZM15.0469 9.5C14.8359 9.5 14.625 9.28906 14.625 9.07812V0.957031C14.625 0.746094 14.8359 0.5 15.0469 0.5H16.418C16.6289 0.5 16.875 0.746094 16.875 0.957031V9.07812C16.875 9.28906 16.6289 9.5 16.418 9.5H15.0469ZM4.92188 9.5C4.71094 9.5 4.5 9.28906 4.5 9.07812V6.58203C4.5 6.37109 4.71094 6.125 4.92188 6.125H6.29297C6.50391 6.125 6.75 6.37109 6.75 6.58203V9.07812C6.75 9.28906 6.50391 9.5 6.29297 9.5H4.92188ZM8.29688 9.5C8.08594 9.5 7.875 9.28906 7.875 9.07812V2.08203C7.875 1.87109 8.08594 1.625 8.29688 1.625H9.66797C9.87891 1.625 10.125 1.87109 10.125 2.08203V9.07812C10.125 9.28906 9.87891 9.5 9.66797 9.5H8.29688ZM17.4375 11.75C17.7188 11.75 18 12.0312 18 12.3125V13.4375C18 13.7539 17.7188 14 17.4375 14H1.125C0.492188 14 0 13.5078 0 12.875V1.0625C0 0.78125 0.246094 0.5 0.5625 0.5H1.6875C1.96875 0.5 2.25 0.78125 2.25 1.0625V11.75H17.4375Z" fill="#FEFF05"/>
</svg>
