<svg width="29" height="20" viewBox="0 0 29 20" fill="none" xmlns="http://www.w3.org/2000/svg">
<path d="M19.1254 19.1248C18.6473 19.1248 18.3285 18.9655 18.0098 18.6467C17.3723 18.0092 17.3723 17.053 18.0098 16.4155L25.9784 8.44681C26.6159 7.80932 27.5722 7.80932 28.2097 8.44681C28.8472 9.0843 28.8472 10.0405 28.2097 10.678L20.241 18.6467C19.9222 18.9655 19.6035 19.1248 19.1254 19.1248Z" fill="#DFDE02"/>
<path d="M27.0941 11.1561C26.6159 11.1561 26.2972 10.9968 25.9784 10.678L18.0098 2.70935C17.3723 2.07186 17.3723 1.11561 18.0098 0.478121C18.6473 -0.159373 19.6035 -0.159374 20.241 0.478121L28.2097 8.4468C28.8472 9.08429 28.8472 10.0405 28.2097 10.678C27.8909 10.9968 27.5722 11.1561 27.0941 11.1561Z" fill="#DFDE02"/>
<path d="M27.0934 11.1562H1.59361C0.637372 11.1562 -0.00012207 10.5187 -0.00012207 9.56242C-0.00012207 8.60618 0.637372 7.96869 1.59361 7.96869H27.0934C28.0496 7.96869 28.6871 8.60618 28.6871 9.56242C28.6871 10.5187 28.0496 11.1562 27.0934 11.1562Z" fill="#DFDE02"/>
</svg>
